<svg width="2758" height="2582" viewBox="0 0 2758 2582" fill="none" xmlns="http://www.w3.org/2000/svg">
<rect width="2758" height="2582" fill="#E5E5E5"/>
<g opacity="0.5">
<path opacity="0.5" d="M1379 2582C2140.6 2582 2758 2004 2758 1291C2758 578 2140.6 0 1379 0C617.399 0 0 578 0 1291C0 2004 617.399 2582 1379 2582Z" fill="url(#paint0_linear_0_1)"/>
</g>
<path d="M1381.69 2546.53C2127.23 2546.53 2731.61 1980.71 2731.61 1282.75C2731.61 584.788 2127.23 18.9766 1381.69 18.9766C636.148 18.9766 31.7686 584.788 31.7686 1282.75C31.7686 1980.71 636.148 2546.53 1381.69 2546.53Z" fill="#F5F5F5"/>
<path d="M1382.95 2551.52C1646.73 2551.92 1904.79 2479.62 2124.96 2343.63C2075.22 2089.13 1885.91 2074.63 1885.91 2074.63H841.98C841.98 2074.63 663.342 2088.35 607.55 2322.47C834.549 2471.95 1105.42 2551.97 1382.95 2551.52V2551.52Z" fill="#347CD4"/>
<path d="M1368.61 1866.11C1728.46 1866.11 2020.18 1593 2020.18 1256.12C2020.18 919.23 1728.46 646.129 1368.61 646.129C1008.76 646.129 717.041 919.23 717.041 1256.12C717.041 1593 1008.76 1866.11 1368.61 1866.11Z" fill="#333333"/>
<path opacity="0.1" d="M1158.32 1764.19H1575.81V2076.88C1575.81 2128.7 1553.83 2178.4 1514.7 2215.04C1475.57 2251.69 1422.5 2272.29 1367.15 2272.31V2272.31C1311.78 2272.31 1258.69 2251.72 1219.54 2215.07C1180.39 2178.42 1158.4 2128.71 1158.4 2076.88V1764.19H1158.32Z" fill="black"/>
<path d="M1171.56 1749.69H1562.73C1566.25 1749.69 1569.61 1751 1572.09 1753.32C1574.58 1755.65 1575.97 1758.8 1575.97 1762.09V2062.38C1575.98 2088.05 1570.58 2113.48 1560.09 2137.2C1549.59 2160.92 1534.21 2182.47 1514.82 2200.62C1495.42 2218.77 1472.4 2233.17 1447.06 2242.99C1421.73 2252.8 1394.57 2257.85 1367.15 2257.84V2257.84C1311.78 2257.84 1258.69 2237.25 1219.54 2200.61C1180.39 2163.96 1158.4 2114.25 1158.4 2062.42V1762.09C1158.4 1758.81 1159.78 1755.67 1162.25 1753.35C1164.71 1751.03 1168.06 1749.71 1171.56 1749.69V1749.69Z" fill="#FDB797"/>
<path opacity="0.1" d="M1159.07 1911.79C1293.63 1958.85 1441.74 1959.23 1576.56 1912.86V1864.77H1159.07V1911.79Z" fill="black"/>
<path d="M1368.61 1937.94C1699.11 1937.94 1967.03 1687.12 1967.03 1377.71C1967.03 1068.3 1699.11 817.473 1368.61 817.473C1038.11 817.473 770.186 1068.3 770.186 1377.71C770.186 1687.12 1038.11 1937.94 1368.61 1937.94Z" fill="#FDB797"/>
<path opacity="0.1" d="M942.343 868.114C942.343 868.114 1194.55 1347.37 1905.98 1069.05L1740.35 825.907L1446.72 727.251L942.343 868.114Z" fill="black"/>
<path d="M942.343 861.086C942.343 861.086 1194.55 1340.35 1905.98 1061.95L1740.35 818.805L1446.72 720.148L942.343 861.086Z" fill="#333333"/>
<path d="M940.13 828.607C957.136 779.325 986.527 734.582 1025.83 698.139C1143.54 589.199 1336.52 566.227 1435.5 442.01C1459.21 476.486 1440.88 529.495 1399.94 544.291C1494.77 543.7 1604.66 535.931 1658.28 462.91C1671.53 491.791 1675.75 523.599 1670.46 554.637C1665.16 585.676 1650.57 614.67 1628.37 638.25C1712.41 641.949 1802.22 695.216 1807.52 773.823C1811.15 826.203 1775.91 875.771 1730.11 905.808C1684.32 935.845 1628.52 949.643 1573.8 960.926C1414.01 993.959 835.856 1132.2 940.13 828.607Z" fill="#333333"/>
<path d="M769.948 1474.92C800.696 1474.92 825.622 1431.17 825.622 1377.19C825.622 1323.21 800.696 1279.46 769.948 1279.46C739.2 1279.46 714.274 1323.21 714.274 1377.19C714.274 1431.17 739.2 1474.92 769.948 1474.92Z" fill="#FDB797"/>
<path d="M1966.95 1474.92C1997.7 1474.92 2022.63 1431.17 2022.63 1377.19C2022.63 1323.21 1997.7 1279.46 1966.95 1279.46C1936.2 1279.46 1911.28 1323.21 1911.28 1377.19C1911.28 1431.17 1936.2 1474.92 1966.95 1474.92Z" fill="#FDB797"/>
<defs>
<linearGradient id="paint0_linear_0_1" x1="1379" y1="2582" x2="1379" y2="0" gradientUnits="userSpaceOnUse">
<stop stop-color="#808080" stop-opacity="0.25"/>
<stop offset="0.54" stop-color="#808080" stop-opacity="0.12"/>
<stop offset="1" stop-color="#808080" stop-opacity="0.1"/>
</linearGradient>
</defs>
</svg>
